<svg width="84" height="32" viewBox="0 0 84 32" fill="none" xmlns="http://www.w3.org/2000/svg">
<g clip-path="url(#clip0_1735_484)">
<path d="M57.182 1.47084e-05C59.7618 -0.00446082 59.7618 -0.00446082 60.8711 -0.0055797C61.6254 -0.00632562 62.3794 -0.0074445 63.1329 -0.00893634C63.7417 -0.00968226 64.3504 -0.0100552 64.9592 -0.0100552C65.1897 -0.0108011 65.4202 -0.0115471 65.6507 -0.012293C69.249 -0.021244 69.249 -0.021244 70.9234 0.307707C71.0775 0.336798 71.0775 0.336798 71.2348 0.367008C74.0064 0.919735 76.645 2.02519 78.7915 3.9161C78.8964 4.00635 79.0032 4.09773 79.1118 4.19022C81.2273 6.04309 82.7134 8.56729 83.488 11.2727C83.5138 11.3645 83.5404 11.4577 83.5678 11.5525C83.9323 12.9052 84.0365 14.2255 84.0288 15.6185C84.028 15.8803 84.0284 16.1421 84.0299 16.4039C84.0343 20.6534 82.402 24.5125 79.4564 27.5245C76.5607 30.4526 72.4117 32.0078 68.3425 32.0134C68.1796 32.0134 68.1796 32.0134 68.0145 32.0123C67.897 32.0123 67.7777 32.0123 67.6565 32.0123C67.2709 32.0123 66.8852 32.0119 66.4996 32.0112C66.2307 32.0105 65.9617 32.0101 65.6928 32.0101C64.988 32.0101 64.2832 32.0093 63.5784 32.0078C62.7303 32.0064 61.8825 32.0056 61.0351 32.0056C59.7511 32.0041 58.4668 32.0023 57.182 32C57.182 28.6031 57.182 25.2062 57.182 21.7063C58.462 21.7063 59.7419 21.7063 61.0606 21.7063C61.0606 23.8848 61.0606 26.0632 61.0606 28.3077C62.4636 28.2943 62.4636 28.2943 63.8654 28.2786C64.4387 28.2719 65.012 28.2659 65.5853 28.2607C66.0478 28.2562 66.5107 28.251 66.9739 28.2451C67.149 28.2428 67.3244 28.2413 67.5003 28.2406C71.011 28.2126 74.2879 27.2034 76.8367 24.6937C77.9925 23.501 78.8281 22.0923 79.3877 20.5248C79.4121 20.4554 79.4372 20.3849 79.4631 20.3133C79.9363 18.8957 80.0715 17.4982 80.0593 16.0146C80.0585 15.931 80.0582 15.8467 80.0582 15.7617C80.0504 14.5175 79.9762 13.3785 79.5672 12.1958C79.5199 12.0451 79.4723 11.8948 79.4243 11.7449C78.4757 8.87162 76.4865 6.64281 73.8213 5.26435C72.9924 4.85484 72.1424 4.53036 71.2559 4.27302C71.1827 4.25139 71.1085 4.22938 71.0331 4.20701C69.618 3.82211 68.1452 3.76953 66.688 3.75834C66.524 3.7561 66.36 3.75386 66.1959 3.75162C65.7711 3.74566 65.3463 3.74081 64.9215 3.73708C64.4088 3.73111 63.8957 3.72477 63.3823 3.71806C62.608 3.70911 61.8341 3.70053 61.0606 3.69232C61.0606 5.94463 61.0606 8.19694 61.0606 10.5175C59.7674 10.5175 58.473 10.4929 57.182 10.4056C57.182 6.97176 57.182 3.53792 57.182 1.47084e-05Z" fill="white"/>
<path d="M0 0C8.55736 0 17.1147 0 25.9314 0C25.2089 1.4579 24.2348 2.80168 23.3283 4.14657C22.1315 5.92485 20.949 7.71282 19.781 9.51049C18.548 11.4059 17.2998 13.2908 16.0365 15.1653C15.4192 16.085 14.813 17.007 14.2346 17.9524C13.8223 18.626 13.3901 19.2862 12.9513 19.9441C12.8796 20.0522 12.8069 20.1622 12.733 20.2741C12.5867 20.4942 12.4404 20.7142 12.2941 20.9343C12.0149 21.3557 11.736 21.7775 11.4575 22.1997C11.1878 22.6085 10.9178 23.0173 10.6474 23.426C10.3748 23.8378 10.1025 24.2495 9.83066 24.6613C9.69029 24.8738 9.54955 25.0864 9.40844 25.299C9.20232 25.6101 8.99657 25.9211 8.79119 26.2322C8.6981 26.3731 8.6981 26.3731 8.6028 26.5175C8.54369 26.6062 8.48385 26.6969 8.42327 26.7894C8.3723 26.8662 8.32058 26.9442 8.26813 27.0232C8.01879 27.4115 7.77831 27.8042 7.53562 28.1958C13.6428 28.2327 19.75 28.2697 26.0422 28.3077C26.0422 29.5262 26.0422 30.7446 26.0422 32C17.5946 32.0369 9.14691 32.0738 0.443272 32.1119C0.591768 31.7382 0.695937 31.4764 0.906491 31.1564C0.953773 31.0833 1.00179 31.0094 1.05055 30.9348C1.10153 30.858 1.15288 30.7797 1.20459 30.6999C1.25852 30.6186 1.31282 30.5358 1.36749 30.4515C1.53963 30.1889 1.71177 29.9263 1.88391 29.6638C1.9962 29.4922 2.1085 29.3207 2.22079 29.1491C2.91894 28.0832 3.61931 27.0195 4.3219 25.958C4.46079 25.7484 4.59931 25.5385 4.73747 25.3281C5.00195 24.9283 5.26644 24.5281 5.53092 24.1276C5.59003 24.038 5.64987 23.9474 5.71045 23.8557C6.13894 23.206 6.56781 22.5563 6.99705 21.9066C7.03694 21.8462 7.07757 21.7846 7.11894 21.722C7.20317 21.5944 7.28739 21.4669 7.37161 21.3393C7.59694 20.9984 7.8219 20.6575 8.04649 20.3166C8.55108 19.5528 9.05567 18.7894 9.56026 18.0263C9.83583 17.6101 10.111 17.1938 10.3859 16.7776C10.5196 16.5747 10.6537 16.3722 10.7881 16.1701C11.4763 15.1284 12.1623 14.0856 12.8338 13.0327C13.4256 12.1052 14.0273 11.1843 14.6291 10.2635C14.8241 9.96438 15.0192 9.66527 15.2142 9.36615C16.4531 7.46965 17.7021 5.5821 18.9499 3.69231C12.6964 3.69231 6.44296 3.69231 0 3.69231C0 2.47385 0 1.25538 0 0Z" fill="white"/>
<path d="M29.6992 14.0979C40.0485 14.0979 50.3978 14.0979 61.0607 14.0979C61.0607 15.3533 61.0607 16.6087 61.0607 17.9021C50.7114 17.9021 40.3621 17.9021 29.6992 17.9021C29.6992 16.6467 29.6992 15.3913 29.6992 14.0979Z" fill="#D43D42"/>
<path d="M29.5884 0C37.3046 0 45.0209 0 52.971 0C52.971 1.21846 52.971 2.43692 52.971 3.69231C46.5347 3.69231 40.0984 3.69231 33.467 3.69231C33.467 5.94462 33.467 8.19692 33.467 10.5175C32.1738 10.5175 30.8794 10.4873 29.5884 10.4056C29.5884 6.97175 29.5884 3.5379 29.5884 0Z" fill="#D43D42"/>
<path d="M29.5884 21.7063C30.8683 21.7063 32.1483 21.7063 33.467 21.7063C33.467 23.8848 33.467 26.0632 33.467 28.3077C39.9033 28.3077 46.3396 28.3077 52.971 28.3077C52.971 29.5262 52.971 30.7446 52.971 32C45.2547 32 37.5385 32 29.5884 32C29.5884 28.6031 29.5884 25.2062 29.5884 21.7063Z" fill="#D43D42"/>
</g>
<defs>
<clipPath id="clip0_1735_484">
<rect width="84" height="32" fill="white"/>
</clipPath>
</defs>
</svg>
